<svg width="18" height="18" viewBox="0 0 18 18" fill="none" xmlns="http://www.w3.org/2000/svg">
<path d="M5.23581 3.375C5.75445 3.375 6.23357 3.41452 6.67318 3.53306C7.11279 3.61209 7.47337 3.77509 7.79444 3.97267C8.1155 4.17025 8.35259 4.4518 8.51559 4.81238C8.67366 5.17296 8.75763 5.61257 8.75763 6.09169C8.75763 6.64985 8.63908 7.12897 8.35753 7.48955C8.1155 7.85013 7.72034 8.1712 7.23628 8.40829C7.91792 8.60587 8.43656 8.96645 8.75269 9.44557C9.06881 9.9247 9.27133 10.5224 9.27133 11.204C9.27133 11.7622 9.15278 12.2413 8.95026 12.6414C8.75269 13.0415 8.43162 13.4021 8.07104 13.6392C7.71047 13.8812 7.27085 14.0788 6.79173 14.1973C6.3126 14.3159 5.83348 14.3949 5.35435 14.3949L0 14.4048V3.375H5.23581ZM4.91474 7.85013C5.35435 7.85013 5.71493 7.73159 5.99154 7.52907C6.26815 7.32655 6.39163 6.97091 6.39163 6.5313C6.39163 6.28927 6.35212 6.05218 6.27309 5.89411C6.19406 5.73605 6.07551 5.61257 5.91251 5.49402C5.75445 5.41499 5.59145 5.33596 5.39387 5.29644C5.19629 5.25693 4.99377 5.25693 4.75668 5.25693H2.44008V7.85507C2.44008 7.85013 4.91474 7.85013 4.91474 7.85013ZM5.03329 12.5673C5.27532 12.5673 5.51241 12.5278 5.71493 12.4883C5.91251 12.4487 6.11503 12.3697 6.27309 12.2462C6.43115 12.1227 6.55464 12.0042 6.67318 11.8066C6.75221 11.609 6.83125 11.367 6.83125 11.0855C6.83125 10.5273 6.67318 10.1272 6.35212 9.84567C6.03106 9.60363 5.59145 9.48509 5.0728 9.48509H2.44008V12.5624H5.03329V12.5673Z" fill="#A0A0A0"/>
<path d="M12.7487 12.5278C13.0698 12.8488 13.5489 13.0069 14.1861 13.0069C14.6257 13.0069 15.0258 12.8884 15.3468 12.6858C15.6679 12.4438 15.8655 12.2067 15.9445 11.9647H17.9005C17.5795 12.9229 17.1003 13.6046 16.4632 14.0442C15.826 14.4443 15.0653 14.6814 14.1466 14.6814C13.5094 14.6814 12.9463 14.5628 12.4276 14.3603C11.909 14.1627 11.5089 13.8812 11.1483 13.4811C10.7877 13.1205 10.5111 12.6809 10.3481 12.1623C10.1505 11.6436 10.0666 11.0855 10.0666 10.4433C10.0666 9.84567 10.1456 9.28257 10.3481 8.76393C10.5506 8.24529 10.8273 7.80568 11.1878 7.40558C11.5484 7.045 11.988 6.72394 12.4671 6.52636C12.9858 6.32879 13.5044 6.2053 14.1466 6.2053C14.8282 6.2053 15.4259 6.32385 15.9445 6.60539C16.4632 6.88694 16.8632 7.20307 17.1843 7.68219C17.5054 8.1218 17.7425 8.64044 17.9055 9.1986C17.9845 9.75676 18.024 10.3199 17.9845 10.957H12.1905C12.1905 11.609 12.4276 12.2067 12.7487 12.5278ZM15.2678 8.32926C14.9863 8.04771 14.5466 7.88965 14.028 7.88965C13.6674 7.88965 13.3908 7.96868 13.1488 8.08723C12.9068 8.20577 12.7487 8.36877 12.5906 8.52684C12.4326 8.6849 12.3486 8.88742 12.3091 9.08499C12.2696 9.28257 12.2301 9.44557 12.2301 9.60363H15.826C15.7469 9.0109 15.5444 8.61081 15.2678 8.32926ZM11.7509 4.13567H16.2261V5.21247H11.7509V4.13567Z" fill="#A0A0A0"/>
</svg>
