<svg width="18" height="18" viewBox="0 0 18 18" fill="none" xmlns="http://www.w3.org/2000/svg">
<path d="M15.2381 3.2704C14.0709 2.73474 12.8393 2.35243 11.574 2.13302C11.5625 2.13109 11.5507 2.13276 11.5403 2.13779C11.5298 2.14283 11.5211 2.15099 11.5155 2.16115C11.3569 2.4424 11.1814 2.81027 11.0587 3.09827C9.69479 2.89128 8.30743 2.89128 6.94348 3.09827C6.8067 2.77744 6.65196 2.46457 6.47998 2.16115C6.47421 2.1511 6.46554 2.14304 6.45509 2.13802C6.44465 2.133 6.43293 2.13125 6.42148 2.13302C5.15593 2.35154 3.92421 2.73388 2.75736 3.2704C2.74738 3.27421 2.73903 3.28136 2.73373 3.29065C0.400484 6.77702 -0.239641 10.1779 0.074234 13.536C0.075359 13.5518 0.085484 13.5675 0.097859 13.5776C1.45656 14.5841 2.97628 15.3525 4.59223 15.8501C4.60364 15.8537 4.6159 15.8536 4.62723 15.8498C4.63856 15.8459 4.64837 15.8386 4.65523 15.8288C5.00173 15.3563 5.30998 14.8579 5.57548 14.3336C5.57915 14.3265 5.58124 14.3186 5.58161 14.3106C5.58199 14.3026 5.58063 14.2946 5.57765 14.2871C5.57467 14.2796 5.57012 14.2729 5.56431 14.2674C5.5585 14.2618 5.55157 14.2575 5.54398 14.2549C5.05929 14.0686 4.58987 13.8448 4.13998 13.5855C4.13177 13.5808 4.12486 13.5741 4.11987 13.566C4.11489 13.5579 4.11199 13.5487 4.11143 13.5392C4.11087 13.5297 4.11268 13.5203 4.11668 13.5117C4.12068 13.5031 4.12675 13.4956 4.13436 13.4899C4.22886 13.419 4.32336 13.3448 4.41336 13.2705C4.42131 13.2641 4.43085 13.26 4.44096 13.2586C4.45106 13.2572 4.46136 13.2586 4.47073 13.2626C7.41711 14.6081 10.6065 14.6081 13.5169 13.2626C13.5266 13.2583 13.5373 13.2568 13.5478 13.2581C13.5583 13.2595 13.5682 13.2638 13.5765 13.2705C13.6665 13.3448 13.761 13.419 13.8555 13.4899C13.8631 13.4955 13.8693 13.5029 13.8734 13.5115C13.8775 13.52 13.8794 13.5294 13.8789 13.5389C13.8785 13.5484 13.8757 13.5576 13.8708 13.5657C13.866 13.5739 13.8591 13.5807 13.851 13.5855C13.4021 13.8471 12.9321 14.0707 12.4459 14.2538C12.4383 14.2567 12.4315 14.2611 12.4258 14.2668C12.4201 14.2725 12.4157 14.2794 12.4128 14.2869C12.41 14.2945 12.4087 14.3025 12.4092 14.3106C12.4096 14.3186 12.4118 14.3265 12.4155 14.3336C12.6855 14.8568 12.9949 15.3563 13.3346 15.8288C13.3415 15.8386 13.3513 15.8459 13.3626 15.8498C13.3739 15.8536 13.3862 15.8537 13.3976 15.8501C15.0163 15.3541 16.5385 14.5855 17.8987 13.5776C17.9055 13.5729 17.9111 13.5667 17.9152 13.5595C17.9193 13.5523 17.9217 13.5443 17.9224 13.536C18.2981 9.65365 17.2935 6.2809 15.2606 3.29177C15.2586 3.28683 15.2555 3.28238 15.2516 3.2787C15.2477 3.27502 15.2431 3.27219 15.2381 3.2704V3.2704ZM6.01536 11.4908C5.12773 11.4908 4.39761 10.6763 4.39761 9.67727C4.39761 8.67715 5.11423 7.86265 6.01536 7.86265C6.92323 7.86265 7.64661 8.6839 7.63311 9.67727C7.63311 10.6763 6.91648 11.4908 6.01536 11.4908ZM11.9959 11.4908C11.1094 11.4908 10.3781 10.6763 10.3781 9.67727C10.3781 8.67715 11.0947 7.86265 11.9959 7.86265C12.9037 7.86265 13.6282 8.6839 13.6136 9.67727C13.6136 10.6763 12.9037 11.4908 11.9959 11.4908Z" fill="#A0A0A0"/>
</svg>
